<?xml version="1.0" encoding="UTF-8" standalone="no"?>
<!-- Created with Inkscape (http://www.inkscape.org/) -->

<svg
   version="1.1"
   id="svg2"
   width="816"
   height="1056"
   viewBox="0 0 816 1056"
   sodipodi:docname="Do_not_touch_vector_sign.eps"
   xmlns:inkscape="http://www.inkscape.org/namespaces/inkscape"
   xmlns:sodipodi="http://sodipodi.sourceforge.net/DTD/sodipodi-0.dtd"
   xmlns="http://www.w3.org/2000/svg"
   xmlns:svg="http://www.w3.org/2000/svg">
  <defs
     id="defs6" />
  <sodipodi:namedview
     id="namedview4"
     pagecolor="#ffffff"
     bordercolor="#000000"
     borderopacity="0.25"
     inkscape:showpageshadow="2"
     inkscape:pageopacity="0.0"
     inkscape:pagecheckerboard="0"
     inkscape:deskcolor="#d1d1d1" />
  <g
     id="g8"
     inkscape:groupmode="layer"
     inkscape:label="ink_ext_XXXXXX"
     transform="matrix(1.3333333,0,0,-1.3333333,0,1056)">
    <g
       id="g10"
       transform="scale(0.1)">
      <path
         d="M 0,0 H 6114.34 V 7920 H 0 V 0"
         style="fill:#ffffff;fill-opacity:1;fill-rule:nonzero;stroke:none"
         id="path12" />
      <path
         d="m 5699.74,129.551 c 149.57,0 270.97,121.289 270.97,270.961 V 7477.48 c 0,149.67 -121.4,270.97 -270.97,270.97 H 419.297 c -149.672,0 -270.973,-121.3 -270.973,-270.97 V 400.512 c 0,-149.672 121.301,-270.961 270.973,-270.961 H 5699.74"
         style="fill:#ffffff;fill-opacity:1;fill-rule:nonzero;stroke:none"
         id="path14" />
      <path
         d="m 5699.74,129.551 c 149.57,0 270.97,121.289 270.97,270.961 V 7477.48 c 0,149.67 -121.4,270.97 -270.97,270.97 H 419.297 c -149.672,0 -270.973,-121.3 -270.973,-270.97 V 400.512 c 0,-149.672 121.301,-270.961 270.973,-270.961 z"
         style="fill:none;stroke:#231f20;stroke-width:19.01;stroke-linecap:butt;stroke-linejoin:miter;stroke-miterlimit:4;stroke-dasharray:none;stroke-opacity:1"
         id="path16" />
      <path
         d="m 4064.64,7020.23 c 0,0 -25.71,-582.6 -125.69,-1041.77 0,0 367.17,-647.85 351.24,-682.52 0,0 39.35,-105.71 48.28,-204.25 0,0 114.52,-389.19 176.38,-462.58 l 159.68,-210.86 c 0,0 18,-80.1 -137.96,-119.58 0,0 -370.55,51.17 -395.62,320.55 0,0 -195.66,377.7 -391.29,322.64 0,0 -333.06,-39.13 -463.02,-414.64 0,0 -183.63,-433.45 -201.55,-452.77 0,0 -345.96,-570 -405.23,-581.93 0,0 -108.23,-56.8 -135.92,-21.25 0,0 -94.88,63.13 -71.7,128.19 l 320.56,612.14 c 0,0 128.89,320.89 144.69,344.52 0,0 10.86,55.61 -25.03,78.9 0,0 -57.14,71.43 -104.94,-21.55 0,0 -717.61,-1006.26 -734.4,-970.92 0,0 -92.93,-55.01 -166.02,7.77 0,0 -106.96,111.38 -31.28,179.81 0,0 615.23,914.32 653.04,948.49 0,0 58.07,60.09 -29.73,39.94 0,0 -41.6,-3.55 -168.66,-123.35 0,0 -126.69,-123.57 -211.3,-181.5 0,0 -461.79,-462.77 -503.2,-455.35 0,0 -92.28,-54.9 -143.67,29.14 0,0 -87.52,104.53 -5.3,170.6 0,0 495.08,483.93 526.18,509.5 0,0 384.56,317.92 385.17,350.71 0,0 1.39,65.51 -29.11,72.72 0,0 -117.68,-26 -271.84,-111.38 0,0 -494.33,-312.3 -536.22,-331.71 0,0 -130.2,-56.14 -164.92,31.26 0,0 -58.35,114.26 39.4,164.74 0,0 507.54,374.88 604.93,408.98 0,0 270.92,181.41 307.46,206.9 0,0 78.42,65.6 78.88,90.17 0,0 218.53,428.34 339.24,481.62 0,0 70.38,73.97 100.16,88.11 0,0 2.37,37.66 37.41,66.52 0,0 17.12,107.55 53.7,143.11 0,0 205.95,456.24 220.02,603.44 l 907.18,-12.56"
         style="fill:#100f0d;fill-opacity:1;fill-rule:nonzero;stroke:none"
         id="path18" />
      <path
         d="m 738.199,1600.79 c 0,152.61 134.571,279.11 279.101,279.11 l 4083.71,0.61 c 144.49,0 279.07,-126.48 279.07,-279.11 V 828.602 c 0,-152.633 -134.58,-279.141 -279.07,-279.141 H 1016.62 c -144.542,0 -279.12,126.508 -279.12,279.141 l 0.699,772.188"
         style="fill:#ed1c24;fill-opacity:1;fill-rule:nonzero;stroke:none"
         id="path20" />
      <path
         d="m 1497.29,6086.35 c -255.91,-332.55 -409.75,-747.81 -409.75,-1199.88 0,-1088.69 882.59,-1971.36 1971.27,-1971.36 451.73,0 866.76,153.7 1199.11,409.24 z M 4619.66,3685.66 c 256.29,332.76 410.41,748.3 410.41,1200.81 0,1088.65 -882.54,1971.25 -1971.26,1971.25 -452.54,0 -868.07,-154.09 -1200.81,-410.43 z M 590.621,4886.47 c 0,1363.11 1105.049,2468.12 2468.189,2468.12 1363.11,0 2468.13,-1105.01 2468.13,-2468.12 0,-1363.13 -1105.02,-2468.17 -2468.13,-2468.17 -1363.14,0 -2468.189,1105.04 -2468.189,2468.17"
         style="fill:#ed1c24;fill-opacity:1;fill-rule:nonzero;stroke:none"
         id="path22" />
      <path
         d="m 1211.73,1245.08 c 0,118.08 -35.61,177.14 -106.81,177.14 h -42.39 v -354.94 h 52.26 c 42.07,0 70.32,20.7 84.79,62.11 8.09,23.23 12.15,61.79 12.15,115.69 m 66.06,-192.59 c -22.35,-27.39 -44.81,-44.81 -67.37,-52.26 -15.12,-5.031 -40.64,-7.55 -76.58,-7.55 H 948.813 v 504.79 h 165.977 c 140.87,0 211.31,-84.13 211.31,-252.39 0,-88.97 -16.1,-153.16 -48.31,-192.59"
         style="fill:#ffffff;fill-opacity:1;fill-rule:nonzero;stroke:none"
         id="path24" />
      <path
         d="m 1655.86,1185.92 c 0,92.02 -27.61,138.03 -82.82,138.03 -54.78,0 -82.16,-46.01 -82.16,-138.03 0,-92.02 27.38,-138.03 82.16,-138.03 55.21,0 82.82,46.01 82.82,138.03 m 110.42,0 c 0,-64.2 -15.88,-113.61 -47.65,-148.22 -32.86,-35.93 -81.18,-53.899 -144.93,-53.899 -62.66,0 -110.87,18.179 -144.61,54.559 -32.86,35.27 -49.29,84.46 -49.29,147.56 0,62.88 16.43,111.84 49.29,146.9 33.53,36.15 81.51,54.23 143.95,54.23 62.66,0 110.75,-17.97 144.28,-53.9 32.64,-35.05 48.96,-84.14 48.96,-147.23"
         style="fill:#ffffff;fill-opacity:1;fill-rule:nonzero;stroke:none"
         id="path26" />
      <path
         d="m 2347.25,992.68 h -106.16 v 269.81 c 0,12.27 -5.47,22.47 -16.42,30.57 -9.87,7.01 -21.26,10.51 -34.18,10.51 -27.17,0 -50.51,-11.39 -70,-34.18 V 992.68 h -106.5 v 384.19 h 95.64 l 6.91,-61.14 c 9.21,22.36 27.05,39.88 53.57,52.59 23.22,11.17 48.2,16.76 74.92,16.76 68.14,0 102.22,-40.87 102.22,-122.59 V 992.68"
         style="fill:#ffffff;fill-opacity:1;fill-rule:nonzero;stroke:none"
         id="path28" />
      <path
         d="m 2696.72,1185.92 c 0,92.02 -27.6,138.03 -82.81,138.03 -54.78,0 -82.17,-46.01 -82.17,-138.03 0,-92.02 27.39,-138.03 82.17,-138.03 55.21,0 82.81,46.01 82.81,138.03 m 110.42,0 c 0,-64.2 -15.88,-113.61 -47.65,-148.22 -32.85,-35.93 -81.17,-53.899 -144.92,-53.899 -62.67,0 -110.87,18.179 -144.61,54.559 -32.87,35.27 -49.3,84.46 -49.3,147.56 0,62.88 16.43,111.84 49.3,146.9 33.53,36.15 81.5,54.23 143.95,54.23 62.65,0 110.74,-17.97 144.27,-53.9 32.65,-35.05 48.96,-84.14 48.96,-147.23"
         style="fill:#ffffff;fill-opacity:1;fill-rule:nonzero;stroke:none"
         id="path30" />
      <path
         d="m 3098.78,1007.79 c -23.45,-12.27 -54.88,-18.411 -94.32,-18.411 -37.91,0 -66.83,12.711 -86.76,38.131 -18.41,23.22 -27.61,54.23 -27.61,93.01 v 188.64 h -50.61 v 67.71 h 50.61 v 48.64 l 107.14,64.4 v -113.04 h 79.86 v -67.71 h -79.86 v -195.21 c 0,-19.72 3.17,-33.85 9.53,-42.4 7.44,-10.3 20.59,-15.45 39.44,-15.45 16.87,0 29.25,1.86 37.14,5.59 l 15.44,-53.9"
         style="fill:#ffffff;fill-opacity:1;fill-rule:nonzero;stroke:none"
         id="path32" />
      <path
         d="m 3543.03,1007.79 c -23.44,-12.27 -54.89,-18.411 -94.32,-18.411 -37.91,0 -66.83,12.711 -86.76,38.131 -18.4,23.22 -27.61,54.23 -27.61,93.01 v 188.64 h -50.61 v 67.71 h 50.61 v 48.64 l 107.14,64.4 v -113.04 h 79.87 v -67.71 h -79.87 v -195.21 c 0,-19.72 3.17,-33.85 9.54,-42.4 7.44,-10.3 20.58,-15.45 39.43,-15.45 16.87,0 29.26,1.86 37.13,5.59 l 15.45,-53.9"
         style="fill:#ffffff;fill-opacity:1;fill-rule:nonzero;stroke:none"
         id="path34" />
      <path
         d="m 3845.18,1185.92 c 0,92.02 -27.6,138.03 -82.82,138.03 -54.78,0 -82.16,-46.01 -82.16,-138.03 0,-92.02 27.38,-138.03 82.16,-138.03 55.22,0 82.82,46.01 82.82,138.03 m 110.43,0 c 0,-64.2 -15.9,-113.61 -47.66,-148.22 -32.87,-35.93 -81.17,-53.899 -144.92,-53.899 -62.68,0 -110.88,18.179 -144.61,54.559 -32.87,35.27 -49.3,84.46 -49.3,147.56 0,62.88 16.43,111.84 49.3,146.9 33.51,36.15 81.5,54.23 143.94,54.23 62.66,0 110.75,-17.97 144.28,-53.9 32.64,-35.05 48.97,-84.14 48.97,-147.23"
         style="fill:#ffffff;fill-opacity:1;fill-rule:nonzero;stroke:none"
         id="path36" />
      <path
         d="m 4362.91,992.68 h -97.6 l -6.58,59.81 c -33.96,-45.35 -78.2,-68.029 -132.77,-68.029 -64.2,0 -96.29,41.289 -96.29,123.899 v 268.51 h 106.48 v -258.33 c 0,-34.61 14.57,-51.92 43.71,-51.92 33.73,0 59.38,12.16 76.9,36.48 v 273.77 h 106.15 V 992.68"
         style="fill:#ffffff;fill-opacity:1;fill-rule:nonzero;stroke:none"
         id="path38" />
      <path
         d="m 4749.86,1014.7 c -11.4,-7.45 -28.75,-14.47 -52.09,-21.052 -23.34,-6.558 -42.67,-9.847 -58,-9.847 -135.63,0 -203.45,67.369 -203.45,202.119 0,63.32 17.64,112.66 52.91,148.05 35.28,35.39 84.58,53.08 147.9,53.08 46.44,0 82.38,-8.88 107.79,-26.62 l -9.85,-64.41 c -20.6,16.21 -47.86,24.3 -81.83,24.3 -67.26,0 -100.9,-45.45 -100.9,-136.37 0,-86.33 29.59,-129.49 88.73,-129.49 14.03,0 31.18,2.51 51.45,7.56 20.25,5.04 35.21,10.52 44.84,16.43 l 12.5,-63.75"
         style="fill:#ffffff;fill-opacity:1;fill-rule:nonzero;stroke:none"
         id="path40" />
      <path
         d="m 5151.91,992.68 h -106.15 v 269.81 c 0,27.39 -14.67,41.08 -44.02,41.08 -32.87,0 -58.4,-11.39 -76.58,-34.18 V 992.68 h -106.49 v 504.79 h 106.49 v -179.11 c 30.89,44.48 74.16,66.72 129.8,66.72 64.63,0 96.95,-40.87 96.95,-122.59 V 992.68"
         style="fill:#ffffff;fill-opacity:1;fill-rule:nonzero;stroke:none"
         id="path42" />
    </g>
  </g>
</svg>
